<mxfile host="Electron" agent="Mozilla/5.0 (X11; Linux x86_64) AppleWebKit/537.36 (KHTML, like Gecko) draw.io/26.2.2 Chrome/134.0.6998.178 Electron/35.1.2 Safari/537.36" version="26.2.2">
  <diagram name="Page-1" id="1xVnO6OTS2RvEFYM70UW">
    <mxGraphModel dx="4930" dy="4628" grid="1" gridSize="10" guides="1" tooltips="1" connect="1" arrows="1" fold="1" page="1" pageScale="1" pageWidth="850" pageHeight="1100" math="0" shadow="0">
      <root>
        <mxCell id="0" />
        <mxCell id="1" parent="0" />
        <mxCell id="vWdL1QEMe_n-aXKPp4n5-1" value="User" style="swimlane;fontStyle=1;align=center;verticalAlign=top;childLayout=stackLayout;horizontal=1;startSize=26;horizontalStack=0;resizeParent=1;resizeParentMax=0;resizeLast=0;collapsible=1;marginBottom=0;whiteSpace=wrap;html=1;shadow=1;" vertex="1" parent="1">
          <mxGeometry x="190" y="60" width="350" height="1020" as="geometry" />
        </mxCell>
        <mxCell id="vWdL1QEMe_n-aXKPp4n5-2" value="&lt;div&gt;&lt;p&gt;- id: String&lt;/p&gt;&lt;p&gt;- userName: String&lt;/p&gt;&lt;p&gt;- passwordHash: String // Lưu hash + salt&lt;/p&gt;&lt;p&gt;- fullName: String&lt;/p&gt;&lt;p&gt;- birthday: LocalDate&lt;/p&gt;&lt;p&gt;- gender: Gender       // Kiểu Enum Gender&lt;/p&gt;&lt;p&gt;- idCardNumber: String {optional}&lt;/p&gt;&lt;p&gt;- email: String&lt;/p&gt;&lt;p&gt;- phoneNumber: String {optional}&lt;/p&gt;&lt;p&gt;- address: String {optional}&lt;/p&gt;&lt;/div&gt;" style="text;strokeColor=none;fillColor=none;align=left;verticalAlign=top;spacingLeft=4;spacingRight=4;overflow=hidden;rotatable=0;points=[[0,0.5],[1,0.5]];portConstraint=eastwest;whiteSpace=wrap;html=1;shadow=1;" vertex="1" parent="vWdL1QEMe_n-aXKPp4n5-1">
          <mxGeometry y="26" width="350" height="314" as="geometry" />
        </mxCell>
        <mxCell id="vWdL1QEMe_n-aXKPp4n5-3" value="" style="line;strokeWidth=1;fillColor=none;align=left;verticalAlign=middle;spacingTop=-1;spacingLeft=3;spacingRight=3;rotatable=0;labelPosition=right;points=[];portConstraint=eastwest;strokeColor=inherit;shadow=1;" vertex="1" parent="vWdL1QEMe_n-aXKPp4n5-1">
          <mxGeometry y="340" width="350" height="10" as="geometry" />
        </mxCell>
        <mxCell id="vWdL1QEMe_n-aXKPp4n5-4" value="&lt;p&gt;+ getId(): String&lt;/p&gt;&lt;p&gt;+ getUserName(): String&lt;/p&gt;&lt;p&gt;+ getFullName(): String&lt;/p&gt;&lt;p&gt;+ getBirthday(): LocalDate&lt;/p&gt;&lt;p&gt;+ getGender(): Gender&lt;/p&gt;&lt;p&gt;+ getIdCardNumber(): String&lt;/p&gt;&lt;p&gt;+ getEmail(): String&lt;/p&gt;&lt;p&gt;+ getPhoneNumber(): String&lt;/p&gt;&lt;p&gt;+ getAddress(): String&lt;/p&gt;&lt;p&gt;&amp;nbsp;+ getNationality(): String&lt;/p&gt;&lt;p&gt;+ setFullName(fullName: String): void&lt;/p&gt;&lt;p&gt;+ setEmail(email: String): void&lt;/p&gt;&lt;p&gt;+ setPhoneNumber(phoneNumber: String): void&lt;/p&gt;&lt;p&gt;+ setAddress(address: String): void&lt;/p&gt;&lt;p&gt;+ setBirthday(birthday: LocalDate): void&lt;/p&gt;&lt;p&gt;+ setGender(gender: Gender): void&lt;/p&gt;&lt;p&gt;+ displayInfo(): void // Hoặc trả về String&lt;/p&gt;&lt;p&gt;+ updateInfo(fullName: String, email: String, ...): void // Hoặc nhận đối tượng data&lt;/p&gt;&lt;p&gt;+ changePassword(oldPassword: String, newPassword: String): boolean&lt;/p&gt;&lt;p&gt;+ checkPassword(passwordToCheck: String): boolean&lt;/p&gt;&lt;p&gt;+ toString(): String&lt;/p&gt;&lt;p&gt;+ equals(o: Object): boolean&lt;/p&gt;&lt;p&gt;+ hashCode(): int&amp;nbsp;&lt;/p&gt;" style="text;strokeColor=none;fillColor=none;align=left;verticalAlign=top;spacingLeft=4;spacingRight=4;overflow=hidden;rotatable=0;points=[[0,0.5],[1,0.5]];portConstraint=eastwest;whiteSpace=wrap;html=1;shadow=1;" vertex="1" parent="vWdL1QEMe_n-aXKPp4n5-1">
          <mxGeometry y="350" width="350" height="670" as="geometry" />
        </mxCell>
        <mxCell id="vWdL1QEMe_n-aXKPp4n5-6" value="Student" style="swimlane;fontStyle=1;align=center;verticalAlign=top;childLayout=stackLayout;horizontal=1;startSize=26;horizontalStack=0;resizeParent=1;resizeParentMax=0;resizeLast=0;collapsible=1;marginBottom=0;whiteSpace=wrap;html=1;shadow=1;" vertex="1" parent="1">
          <mxGeometry x="940" y="-590" width="220" height="590" as="geometry" />
        </mxCell>
        <mxCell id="vWdL1QEMe_n-aXKPp4n5-7" value="&lt;p&gt;- className: String          &lt;/p&gt;&lt;p&gt;- faculty: String           &lt;/p&gt;&lt;p&gt;- academicYear: String      &lt;/p&gt;&lt;p&gt;- gpa: double                &lt;/p&gt;&lt;p&gt;- academicStatus: String     &lt;/p&gt;&lt;p&gt;- enrolledCourses: List&amp;lt;Course&amp;gt; &lt;/p&gt;&lt;p&gt;- submissions: List&amp;lt;Submission&amp;gt;&lt;/p&gt;" style="text;strokeColor=none;fillColor=none;align=left;verticalAlign=top;spacingLeft=4;spacingRight=4;overflow=hidden;rotatable=0;points=[[0,0.5],[1,0.5]];portConstraint=eastwest;whiteSpace=wrap;html=1;shadow=1;" vertex="1" parent="vWdL1QEMe_n-aXKPp4n5-6">
          <mxGeometry y="26" width="220" height="224" as="geometry" />
        </mxCell>
        <mxCell id="vWdL1QEMe_n-aXKPp4n5-8" value="" style="line;strokeWidth=1;fillColor=none;align=left;verticalAlign=middle;spacingTop=-1;spacingLeft=3;spacingRight=3;rotatable=0;labelPosition=right;points=[];portConstraint=eastwest;strokeColor=inherit;shadow=1;" vertex="1" parent="vWdL1QEMe_n-aXKPp4n5-6">
          <mxGeometry y="250" width="220" height="8" as="geometry" />
        </mxCell>
        <mxCell id="vWdL1QEMe_n-aXKPp4n5-9" value="&lt;p&gt;&lt;span style=&quot;background-color: transparent; color: light-dark(rgb(0, 0, 0), rgb(255, 255, 255));&quot;&gt;+ enrollCourse(course: Course): boolean&lt;/span&gt;&lt;/p&gt;&lt;p&gt;+ dropCourse(course: Course): boolean&lt;/p&gt;&lt;p&gt;+ viewEnrolledCourses(): List&amp;lt;Course&amp;gt;&lt;/p&gt;&lt;p&gt;+ viewGrades(): void &lt;/p&gt;&lt;p&gt;+ submitAssignment(assignment: Assignment, content: String/File): Submission&lt;/p&gt;&lt;p&gt;+ viewSubmission(assignment: Assignment): Submission&lt;/p&gt;&lt;p&gt;+ viewNotifications(): List&amp;lt;Notification&amp;gt;&lt;/p&gt;&lt;p&gt;+ displayDashboard(): void &lt;/p&gt;&lt;p&gt;+ toString(): String&amp;nbsp;&lt;/p&gt;" style="text;strokeColor=none;fillColor=none;align=left;verticalAlign=top;spacingLeft=4;spacingRight=4;overflow=hidden;rotatable=0;points=[[0,0.5],[1,0.5]];portConstraint=eastwest;whiteSpace=wrap;html=1;shadow=1;" vertex="1" parent="vWdL1QEMe_n-aXKPp4n5-6">
          <mxGeometry y="258" width="220" height="332" as="geometry" />
        </mxCell>
        <mxCell id="vWdL1QEMe_n-aXKPp4n5-10" value="" style="endArrow=block;endSize=16;endFill=0;html=1;rounded=0;entryX=1;entryY=0.5;entryDx=0;entryDy=0;exitX=0;exitY=0.5;exitDx=0;exitDy=0;shadow=1;flowAnimation=0;edgeStyle=orthogonalEdgeStyle;" edge="1" parent="1" source="vWdL1QEMe_n-aXKPp4n5-7" target="vWdL1QEMe_n-aXKPp4n5-2">
          <mxGeometry x="-0.0018" width="160" relative="1" as="geometry">
            <mxPoint x="540" y="490" as="sourcePoint" />
            <mxPoint x="700" y="490" as="targetPoint" />
            <mxPoint as="offset" />
          </mxGeometry>
        </mxCell>
        <mxCell id="vWdL1QEMe_n-aXKPp4n5-11" value="Admin" style="swimlane;fontStyle=1;align=center;verticalAlign=top;childLayout=stackLayout;horizontal=1;startSize=26;horizontalStack=0;resizeParent=1;resizeParentMax=0;resizeLast=0;collapsible=1;marginBottom=0;whiteSpace=wrap;html=1;shadow=1;" vertex="1" parent="1">
          <mxGeometry x="890" y="40" width="410" height="760" as="geometry" />
        </mxCell>
        <mxCell id="vWdL1QEMe_n-aXKPp4n5-12" value="+ field: type" style="text;strokeColor=none;fillColor=none;align=left;verticalAlign=top;spacingLeft=4;spacingRight=4;overflow=hidden;rotatable=0;points=[[0,0.5],[1,0.5]];portConstraint=eastwest;whiteSpace=wrap;html=1;shadow=1;" vertex="1" parent="vWdL1QEMe_n-aXKPp4n5-11">
          <mxGeometry y="26" width="410" height="26" as="geometry" />
        </mxCell>
        <mxCell id="vWdL1QEMe_n-aXKPp4n5-13" value="" style="line;strokeWidth=1;fillColor=none;align=left;verticalAlign=middle;spacingTop=-1;spacingLeft=3;spacingRight=3;rotatable=0;labelPosition=right;points=[];portConstraint=eastwest;strokeColor=inherit;shadow=1;" vertex="1" parent="vWdL1QEMe_n-aXKPp4n5-11">
          <mxGeometry y="52" width="410" height="8" as="geometry" />
        </mxCell>
        <mxCell id="vWdL1QEMe_n-aXKPp4n5-14" value="&lt;p&gt;+ createUser(userData: UserData, role: Role): User &lt;/p&gt;&lt;p&gt;+ deleteUser(userId: String): boolean&lt;/p&gt;&lt;p&gt;+ updateUser(userId: String, userData: UserData): boolean&lt;/p&gt;&lt;p&gt;+ resetPassword(userId: String): String&amp;nbsp;&lt;/p&gt;&lt;p&gt;+ searchUser(keyword: String): List&amp;lt;User&amp;gt;&lt;/p&gt;&lt;p&gt;+ createCourse(name: String, description: String, ...): Course &lt;/p&gt;&lt;p&gt;+ deleteCourse(courseId: String): boolean&lt;/p&gt;&lt;p&gt;+ assignInstructorToCourse(instructor: Instructor, course: Course): boolean&lt;/p&gt;&lt;p&gt;+ enrollStudentInCourse(student: Student, course: Course): boolean&lt;/p&gt;&lt;p&gt;+ viewSystemLog(): List&amp;lt;LogEntry&amp;gt; &lt;/p&gt;&lt;p&gt;+ generateReport(reportType: ReportType): Report &lt;/p&gt;&lt;p&gt;+ displayDashboard(): void &lt;/p&gt;&lt;p&gt;+ toString(): String&amp;nbsp; &amp;nbsp; &amp;nbsp; &amp;nbsp;&lt;/p&gt;" style="text;strokeColor=none;fillColor=none;align=left;verticalAlign=top;spacingLeft=4;spacingRight=4;overflow=hidden;rotatable=0;points=[[0,0.5],[1,0.5]];portConstraint=eastwest;whiteSpace=wrap;html=1;shadow=1;" vertex="1" parent="vWdL1QEMe_n-aXKPp4n5-11">
          <mxGeometry y="60" width="410" height="700" as="geometry" />
        </mxCell>
        <mxCell id="vWdL1QEMe_n-aXKPp4n5-16" value="" style="endArrow=block;endSize=16;endFill=0;html=1;rounded=0;entryX=1;entryY=0.5;entryDx=0;entryDy=0;exitX=0.003;exitY=0.366;exitDx=0;exitDy=0;exitPerimeter=0;shadow=1;edgeStyle=orthogonalEdgeStyle;" edge="1" parent="1" source="vWdL1QEMe_n-aXKPp4n5-14" target="vWdL1QEMe_n-aXKPp4n5-2">
          <mxGeometry width="160" relative="1" as="geometry">
            <mxPoint x="720" y="370" as="sourcePoint" />
            <mxPoint x="880" y="370" as="targetPoint" />
            <Array as="points">
              <mxPoint x="715" y="356" />
              <mxPoint x="715" y="270" />
              <mxPoint x="540" y="270" />
            </Array>
          </mxGeometry>
        </mxCell>
        <mxCell id="vWdL1QEMe_n-aXKPp4n5-17" value="CourseManager" style="swimlane;fontStyle=1;align=center;verticalAlign=top;childLayout=stackLayout;horizontal=1;startSize=26;horizontalStack=0;resizeParent=1;resizeParentMax=0;resizeLast=0;collapsible=1;marginBottom=0;whiteSpace=wrap;html=1;shadow=1;" vertex="1" parent="1">
          <mxGeometry x="860" y="890" width="560" height="780" as="geometry" />
        </mxCell>
        <mxCell id="vWdL1QEMe_n-aXKPp4n5-18" value="+ field: type" style="text;strokeColor=none;fillColor=none;align=left;verticalAlign=top;spacingLeft=4;spacingRight=4;overflow=hidden;rotatable=0;points=[[0,0.5],[1,0.5]];portConstraint=eastwest;whiteSpace=wrap;html=1;shadow=1;" vertex="1" parent="vWdL1QEMe_n-aXKPp4n5-17">
          <mxGeometry y="26" width="560" height="26" as="geometry" />
        </mxCell>
        <mxCell id="vWdL1QEMe_n-aXKPp4n5-19" value="" style="line;strokeWidth=1;fillColor=none;align=left;verticalAlign=middle;spacingTop=-1;spacingLeft=3;spacingRight=3;rotatable=0;labelPosition=right;points=[];portConstraint=eastwest;strokeColor=inherit;shadow=1;" vertex="1" parent="vWdL1QEMe_n-aXKPp4n5-17">
          <mxGeometry y="52" width="560" height="8" as="geometry" />
        </mxCell>
        <mxCell id="vWdL1QEMe_n-aXKPp4n5-20" value="&lt;p&gt;+ viewManagedCourses(): List&amp;lt;Course&amp;gt;&lt;/p&gt;&lt;p&gt;+ addMaterial(course: Course, material: Material): boolean &lt;/p&gt;&lt;p&gt;+ removeMaterial(course: Course, material: Material): boolean &lt;/p&gt;&lt;p&gt;+ createAssignment(course: Course, title: String, description: String, dueDate: LocalDate): Assignment &lt;/p&gt;&lt;p&gt;+ viewSubmissions(assignment: Assignment): List&amp;lt;Submission&amp;gt;&lt;/p&gt;&lt;p&gt;+ gradeSubmission(submission: Submission, grade: double, comments: String): boolean &lt;/p&gt;&lt;p&gt;+ publishGrades(assignment: Assignment): void &lt;/p&gt;&lt;p&gt;+ sendNotification(course: Course, content: String): boolean&lt;/p&gt;&lt;p&gt;+ viewCourseStatistics(course: Course): StatisticsData &lt;/p&gt;&lt;p&gt;+ displayDashboard(): void&lt;/p&gt;&lt;p&gt;+ toString(): String&amp;nbsp; &amp;nbsp; &amp;nbsp; &amp;nbsp;&lt;/p&gt;" style="text;strokeColor=none;fillColor=none;align=left;verticalAlign=top;spacingLeft=4;spacingRight=4;overflow=hidden;rotatable=0;points=[[0,0.5],[1,0.5]];portConstraint=eastwest;whiteSpace=wrap;html=1;shadow=1;" vertex="1" parent="vWdL1QEMe_n-aXKPp4n5-17">
          <mxGeometry y="60" width="560" height="720" as="geometry" />
        </mxCell>
        <mxCell id="vWdL1QEMe_n-aXKPp4n5-21" value="" style="endArrow=block;endSize=16;endFill=0;html=1;rounded=0;exitX=0;exitY=0.5;exitDx=0;exitDy=0;shadow=1;edgeStyle=orthogonalEdgeStyle;" edge="1" parent="1">
          <mxGeometry x="0.0001" width="160" relative="1" as="geometry">
            <mxPoint x="860" y="1370" as="sourcePoint" />
            <mxPoint x="540" y="300" as="targetPoint" />
            <Array as="points">
              <mxPoint x="670" y="1370" />
              <mxPoint x="670" y="300" />
            </Array>
            <mxPoint as="offset" />
          </mxGeometry>
        </mxCell>
        <mxCell id="vWdL1QEMe_n-aXKPp4n5-26" value="Lesson&lt;div&gt;&lt;br&gt;&lt;/div&gt;" style="swimlane;fontStyle=1;align=center;verticalAlign=top;childLayout=stackLayout;horizontal=1;startSize=26;horizontalStack=0;resizeParent=1;resizeParentMax=0;resizeLast=0;collapsible=1;marginBottom=0;whiteSpace=wrap;html=1;shadow=1;" vertex="1" parent="1">
          <mxGeometry x="2820" y="-2070" width="460" height="770" as="geometry" />
        </mxCell>
        <mxCell id="vWdL1QEMe_n-aXKPp4n5-27" value="&lt;p&gt;- lessonId: String           &lt;/p&gt;&lt;p&gt;- title: String             &lt;/p&gt;&lt;p&gt;- description: String        &lt;/p&gt;&lt;p&gt;- order: int                 &lt;/p&gt;&lt;p&gt;- isPublished: boolean&amp;nbsp; &amp;nbsp;&lt;/p&gt;" style="text;strokeColor=none;fillColor=none;align=left;verticalAlign=top;spacingLeft=4;spacingRight=4;overflow=hidden;rotatable=0;points=[[0,0.5],[1,0.5]];portConstraint=eastwest;whiteSpace=wrap;html=1;shadow=1;" vertex="1" parent="vWdL1QEMe_n-aXKPp4n5-26">
          <mxGeometry y="26" width="460" height="184" as="geometry" />
        </mxCell>
        <mxCell id="vWdL1QEMe_n-aXKPp4n5-28" value="" style="line;strokeWidth=1;fillColor=none;align=left;verticalAlign=middle;spacingTop=-1;spacingLeft=3;spacingRight=3;rotatable=0;labelPosition=right;points=[];portConstraint=eastwest;strokeColor=inherit;shadow=1;" vertex="1" parent="vWdL1QEMe_n-aXKPp4n5-26">
          <mxGeometry y="210" width="460" height="8" as="geometry" />
        </mxCell>
        <mxCell id="vWdL1QEMe_n-aXKPp4n5-29" value="&lt;p&gt;+ getId(): String&lt;/p&gt;&lt;p&gt;+ getTitle(): String&lt;/p&gt;&lt;p&gt;+ setTitle(title: String): void&lt;/p&gt;&lt;p&gt;+ getDescription(): String&lt;/p&gt;&lt;p&gt;+ setDescription(description: String): void&lt;/p&gt;&lt;p&gt;+ getOrder(): int&lt;/p&gt;&lt;p&gt;+ setOrder(order: int): void&lt;/p&gt;&lt;p&gt;+ isPublished(): boolean&lt;/p&gt;&lt;p&gt;+ publish(): void&lt;/p&gt;&lt;p&gt;+ unpublish(): void&lt;/p&gt;&lt;p&gt;&lt;br&gt;&lt;/p&gt;&lt;p&gt;+ addMaterial(material: Material): void&lt;/p&gt;&lt;p&gt;+ removeMaterial(materialId: String): boolean&lt;/p&gt;&lt;p&gt;+ getMaterials(): List&amp;lt;Material&amp;gt;&lt;/p&gt;&lt;p&gt;+ toString(): String&lt;/p&gt;" style="text;strokeColor=none;fillColor=none;align=left;verticalAlign=top;spacingLeft=4;spacingRight=4;overflow=hidden;rotatable=0;points=[[0,0.5],[1,0.5]];portConstraint=eastwest;whiteSpace=wrap;html=1;shadow=1;" vertex="1" parent="vWdL1QEMe_n-aXKPp4n5-26">
          <mxGeometry y="218" width="460" height="552" as="geometry" />
        </mxCell>
        <mxCell id="vWdL1QEMe_n-aXKPp4n5-30" value="Module" style="swimlane;fontStyle=1;align=center;verticalAlign=top;childLayout=stackLayout;horizontal=1;startSize=26;horizontalStack=0;resizeParent=1;resizeParentMax=0;resizeLast=0;collapsible=1;marginBottom=0;whiteSpace=wrap;html=1;shadow=1;" vertex="1" parent="1">
          <mxGeometry x="2280" y="-2110" width="360" height="780" as="geometry" />
        </mxCell>
        <mxCell id="vWdL1QEMe_n-aXKPp4n5-31" value="&lt;p&gt;- moduleId: String        &lt;/p&gt;&lt;p&gt;- title: String             &lt;/p&gt;&lt;p&gt;- description: String      &lt;/p&gt;&lt;p&gt;- order: int                &lt;/p&gt;&lt;p&gt;- courseId: String&amp;nbsp;&lt;/p&gt;" style="text;strokeColor=none;fillColor=none;align=left;verticalAlign=top;spacingLeft=4;spacingRight=4;overflow=hidden;rotatable=0;points=[[0,0.5],[1,0.5]];portConstraint=eastwest;whiteSpace=wrap;html=1;shadow=1;" vertex="1" parent="vWdL1QEMe_n-aXKPp4n5-30">
          <mxGeometry y="26" width="360" height="154" as="geometry" />
        </mxCell>
        <mxCell id="vWdL1QEMe_n-aXKPp4n5-32" value="" style="line;strokeWidth=1;fillColor=none;align=left;verticalAlign=middle;spacingTop=-1;spacingLeft=3;spacingRight=3;rotatable=0;labelPosition=right;points=[];portConstraint=eastwest;strokeColor=inherit;shadow=1;" vertex="1" parent="vWdL1QEMe_n-aXKPp4n5-30">
          <mxGeometry y="180" width="360" height="8" as="geometry" />
        </mxCell>
        <mxCell id="vWdL1QEMe_n-aXKPp4n5-33" value="&lt;p&gt;+ getId(): String&lt;/p&gt;&lt;p&gt;+ getTitle(): String&lt;/p&gt;&lt;p&gt;+ setTitle(title: String): void&lt;/p&gt;&lt;p&gt;+ getDescription(): String&lt;/p&gt;&lt;p&gt;+ setDescription(description: String): void&lt;/p&gt;&lt;p&gt;+ getOrder(): int&lt;/p&gt;&lt;p&gt;+ setOrder(order: int): void&lt;/p&gt;&lt;p&gt;+ getCourseId(): String&lt;/p&gt;&lt;p&gt;&lt;span style=&quot;background-color: transparent; color: light-dark(rgb(0, 0, 0), rgb(255, 255, 255));&quot;&gt;+ addLesson(lesson: Lesson): void&lt;/span&gt;&lt;/p&gt;&lt;p&gt;+ removeLesson(lessonId: String): boolean&lt;/p&gt;&lt;p&gt;+ getLessons(): List&amp;lt;Lesson&amp;gt;      &lt;/p&gt;&lt;p&gt;+ toString(): String&lt;/p&gt;" style="text;strokeColor=none;fillColor=none;align=left;verticalAlign=top;spacingLeft=4;spacingRight=4;overflow=hidden;rotatable=0;points=[[0,0.5],[1,0.5]];portConstraint=eastwest;whiteSpace=wrap;html=1;shadow=1;" vertex="1" parent="vWdL1QEMe_n-aXKPp4n5-30">
          <mxGeometry y="188" width="360" height="592" as="geometry" />
        </mxCell>
        <mxCell id="vWdL1QEMe_n-aXKPp4n5-34" value="Material" style="swimlane;fontStyle=1;align=center;verticalAlign=top;childLayout=stackLayout;horizontal=1;startSize=26;horizontalStack=0;resizeParent=1;resizeParentMax=0;resizeLast=0;collapsible=1;marginBottom=0;whiteSpace=wrap;html=1;shadow=1;" vertex="1" parent="1">
          <mxGeometry x="-770" y="-1980" width="160" height="470" as="geometry" />
        </mxCell>
        <mxCell id="vWdL1QEMe_n-aXKPp4n5-35" value="&lt;p&gt;- materialId: String        &lt;/p&gt;&lt;p&gt;- title: String             &lt;/p&gt;&lt;p&gt;- description: String        &lt;/p&gt;&lt;p&gt;- type: MaterialType&amp;nbsp;&lt;/p&gt;" style="text;strokeColor=none;fillColor=none;align=left;verticalAlign=top;spacingLeft=4;spacingRight=4;overflow=hidden;rotatable=0;points=[[0,0.5],[1,0.5]];portConstraint=eastwest;whiteSpace=wrap;html=1;shadow=1;" vertex="1" parent="vWdL1QEMe_n-aXKPp4n5-34">
          <mxGeometry y="26" width="160" height="144" as="geometry" />
        </mxCell>
        <mxCell id="vWdL1QEMe_n-aXKPp4n5-36" value="" style="line;strokeWidth=1;fillColor=none;align=left;verticalAlign=middle;spacingTop=-1;spacingLeft=3;spacingRight=3;rotatable=0;labelPosition=right;points=[];portConstraint=eastwest;strokeColor=inherit;shadow=1;" vertex="1" parent="vWdL1QEMe_n-aXKPp4n5-34">
          <mxGeometry y="170" width="160" height="8" as="geometry" />
        </mxCell>
        <mxCell id="vWdL1QEMe_n-aXKPp4n5-37" value="&lt;p&gt;+ getId(): String&lt;/p&gt;&lt;p&gt;+ getTitle(): String&lt;/p&gt;&lt;p&gt;+ setTitle(title: String): void&lt;/p&gt;&lt;p&gt;+ getDescription(): String&lt;/p&gt;&lt;p&gt;+ setDescription(description: String): void&lt;/p&gt;&lt;p&gt;+ getType(): MaterialType // Trả về kiểu Enum&lt;/p&gt;&lt;p&gt;+ {abstract} displayContent(): void &lt;/p&gt;&lt;p&gt;+ toString(): String&lt;/p&gt;" style="text;strokeColor=none;fillColor=none;align=left;verticalAlign=top;spacingLeft=4;spacingRight=4;overflow=hidden;rotatable=0;points=[[0,0.5],[1,0.5]];portConstraint=eastwest;whiteSpace=wrap;html=1;shadow=1;" vertex="1" parent="vWdL1QEMe_n-aXKPp4n5-34">
          <mxGeometry y="178" width="160" height="292" as="geometry" />
        </mxCell>
        <mxCell id="vWdL1QEMe_n-aXKPp4n5-38" value="DocumentMaterial" style="swimlane;fontStyle=1;align=center;verticalAlign=top;childLayout=stackLayout;horizontal=1;startSize=26;horizontalStack=0;resizeParent=1;resizeParentMax=0;resizeLast=0;collapsible=1;marginBottom=0;whiteSpace=wrap;html=1;shadow=1;" vertex="1" parent="1">
          <mxGeometry x="-2000" y="-1850" width="340" height="428" as="geometry" />
        </mxCell>
        <mxCell id="vWdL1QEMe_n-aXKPp4n5-39" value="&lt;p&gt;- storageIdentifier: String  // Key hoặc đường dẫn định danh file trong hệ thống lưu trữ&lt;/p&gt;&lt;p&gt;- fileSize: long             // Kích thước file (bytes)&lt;/p&gt;&lt;p&gt;- mimeType: String           // Loại MIME (VD: &quot;application/pdf&quot;)&lt;/p&gt;&lt;p&gt;- originalFileName: String   // Tên file gốc lúc upload {optional}&lt;/p&gt;" style="text;strokeColor=none;fillColor=none;align=left;verticalAlign=top;spacingLeft=4;spacingRight=4;overflow=hidden;rotatable=0;points=[[0,0.5],[1,0.5]];portConstraint=eastwest;whiteSpace=wrap;html=1;shadow=1;" vertex="1" parent="vWdL1QEMe_n-aXKPp4n5-38">
          <mxGeometry y="26" width="340" height="144" as="geometry" />
        </mxCell>
        <mxCell id="vWdL1QEMe_n-aXKPp4n5-40" value="" style="line;strokeWidth=1;fillColor=none;align=left;verticalAlign=middle;spacingTop=-1;spacingLeft=3;spacingRight=3;rotatable=0;labelPosition=right;points=[];portConstraint=eastwest;strokeColor=inherit;shadow=1;" vertex="1" parent="vWdL1QEMe_n-aXKPp4n5-38">
          <mxGeometry y="170" width="340" height="8" as="geometry" />
        </mxCell>
        <mxCell id="vWdL1QEMe_n-aXKPp4n5-41" value="&lt;p&gt;+ getStorageIdentifier(): String&lt;/p&gt;&lt;p&gt;+ getFileSize(): long&lt;/p&gt;&lt;p&gt;+ getMimeType(): String&lt;/p&gt;&lt;p&gt;+ getOriginalFileName(): String&lt;/p&gt;&lt;p&gt;&lt;br&gt;&lt;/p&gt;&lt;p&gt;// Override:&lt;/p&gt;&lt;p&gt;+ displayContent(): void   // Logic sẽ dùng storageIdentifier để tạo link tải/hiển thị&lt;/p&gt;&lt;p&gt;+ toString(): String&lt;/p&gt;" style="text;strokeColor=none;fillColor=none;align=left;verticalAlign=top;spacingLeft=4;spacingRight=4;overflow=hidden;rotatable=0;points=[[0,0.5],[1,0.5]];portConstraint=eastwest;whiteSpace=wrap;html=1;shadow=1;" vertex="1" parent="vWdL1QEMe_n-aXKPp4n5-38">
          <mxGeometry y="178" width="340" height="250" as="geometry" />
        </mxCell>
        <mxCell id="vWdL1QEMe_n-aXKPp4n5-42" value="VideoMaterial" style="swimlane;fontStyle=1;align=center;verticalAlign=top;childLayout=stackLayout;horizontal=1;startSize=26;horizontalStack=0;resizeParent=1;resizeParentMax=0;resizeLast=0;collapsible=1;marginBottom=0;whiteSpace=wrap;html=1;shadow=1;" vertex="1" parent="1">
          <mxGeometry x="-1840" y="-2600" width="420" height="578" as="geometry" />
        </mxCell>
        <mxCell id="vWdL1QEMe_n-aXKPp4n5-43" value="&lt;p&gt;- storageIdentifier: String  // Key hoặc đường dẫn định danh file video&lt;/p&gt;&lt;p&gt;- fileSize: long             // Kích thước file (bytes)&lt;/p&gt;&lt;p&gt;- mimeType: String           // Loại MIME (VD: &quot;video/mp4&quot;)&lt;/p&gt;&lt;p&gt;- duration: int              // Thời lượng video (giây) {optional}&lt;/p&gt;&lt;p&gt;- originalFileName: String   // Tên file gốc lúc upload {optional}&lt;/p&gt;" style="text;strokeColor=none;fillColor=none;align=left;verticalAlign=top;spacingLeft=4;spacingRight=4;overflow=hidden;rotatable=0;points=[[0,0.5],[1,0.5]];portConstraint=eastwest;whiteSpace=wrap;html=1;shadow=1;" vertex="1" parent="vWdL1QEMe_n-aXKPp4n5-42">
          <mxGeometry y="26" width="420" height="264" as="geometry" />
        </mxCell>
        <mxCell id="vWdL1QEMe_n-aXKPp4n5-44" value="" style="line;strokeWidth=1;fillColor=none;align=left;verticalAlign=middle;spacingTop=-1;spacingLeft=3;spacingRight=3;rotatable=0;labelPosition=right;points=[];portConstraint=eastwest;strokeColor=inherit;shadow=1;" vertex="1" parent="vWdL1QEMe_n-aXKPp4n5-42">
          <mxGeometry y="290" width="420" height="8" as="geometry" />
        </mxCell>
        <mxCell id="vWdL1QEMe_n-aXKPp4n5-45" value="&lt;p&gt;+ getStorageIdentifier(): String&lt;/p&gt;&lt;p&gt;+ getFileSize(): long&lt;/p&gt;&lt;p&gt;+ getMimeType(): String&lt;/p&gt;&lt;p&gt;+ getDuration(): int&lt;/p&gt;&lt;p&gt;+ getOriginalFileName(): String&lt;/p&gt;&lt;p&gt;&lt;br&gt;&lt;/p&gt;&lt;p&gt;// Override:&lt;/p&gt;&lt;p&gt;+ displayContent(): void   // Logic sẽ dùng storageIdentifier để tạo link xem/stream video&lt;/p&gt;&lt;p&gt;+ toString(): String&lt;/p&gt;" style="text;strokeColor=none;fillColor=none;align=left;verticalAlign=top;spacingLeft=4;spacingRight=4;overflow=hidden;rotatable=0;points=[[0,0.5],[1,0.5]];portConstraint=eastwest;whiteSpace=wrap;html=1;shadow=1;" vertex="1" parent="vWdL1QEMe_n-aXKPp4n5-42">
          <mxGeometry y="298" width="420" height="280" as="geometry" />
        </mxCell>
        <mxCell id="vWdL1QEMe_n-aXKPp4n5-51" value="LinkMaterial" style="swimlane;fontStyle=1;align=center;verticalAlign=top;childLayout=stackLayout;horizontal=1;startSize=26;horizontalStack=0;resizeParent=1;resizeParentMax=0;resizeLast=0;collapsible=1;marginBottom=0;whiteSpace=wrap;html=1;shadow=1;" vertex="1" parent="1">
          <mxGeometry x="-1810" y="-2990" width="320" height="250" as="geometry" />
        </mxCell>
        <mxCell id="vWdL1QEMe_n-aXKPp4n5-52" value="- url: String                // Địa chỉ URL của liên kết ngoài&lt;div&gt;&lt;br/&gt;&lt;/div&gt;" style="text;strokeColor=none;fillColor=none;align=left;verticalAlign=top;spacingLeft=4;spacingRight=4;overflow=hidden;rotatable=0;points=[[0,0.5],[1,0.5]];portConstraint=eastwest;whiteSpace=wrap;html=1;shadow=1;" vertex="1" parent="vWdL1QEMe_n-aXKPp4n5-51">
          <mxGeometry y="26" width="320" height="26" as="geometry" />
        </mxCell>
        <mxCell id="vWdL1QEMe_n-aXKPp4n5-53" value="" style="line;strokeWidth=1;fillColor=none;align=left;verticalAlign=middle;spacingTop=-1;spacingLeft=3;spacingRight=3;rotatable=0;labelPosition=right;points=[];portConstraint=eastwest;strokeColor=inherit;shadow=1;" vertex="1" parent="vWdL1QEMe_n-aXKPp4n5-51">
          <mxGeometry y="52" width="320" height="8" as="geometry" />
        </mxCell>
        <mxCell id="vWdL1QEMe_n-aXKPp4n5-54" value="&lt;p&gt;+ getUrl(): String&lt;/p&gt;&lt;p&gt;&lt;br&gt;&lt;/p&gt;&lt;p&gt;// Override:&lt;/p&gt;&lt;p&gt;+ displayContent(): void   // Mở liên kết [url]&lt;/p&gt;&lt;p&gt;+ toString(): String&lt;/p&gt;" style="text;strokeColor=none;fillColor=none;align=left;verticalAlign=top;spacingLeft=4;spacingRight=4;overflow=hidden;rotatable=0;points=[[0,0.5],[1,0.5]];portConstraint=eastwest;whiteSpace=wrap;html=1;shadow=1;" vertex="1" parent="vWdL1QEMe_n-aXKPp4n5-51">
          <mxGeometry y="60" width="320" height="190" as="geometry" />
        </mxCell>
        <mxCell id="vWdL1QEMe_n-aXKPp4n5-55" value="TextMaterial" style="swimlane;fontStyle=1;align=center;verticalAlign=top;childLayout=stackLayout;horizontal=1;startSize=26;horizontalStack=0;resizeParent=1;resizeParentMax=0;resizeLast=0;collapsible=1;marginBottom=0;whiteSpace=wrap;html=1;shadow=1;" vertex="1" parent="1">
          <mxGeometry x="-1730" y="-1020" width="310" height="210" as="geometry" />
        </mxCell>
        <mxCell id="vWdL1QEMe_n-aXKPp4n5-56" value="- content: String            // Nội dung văn bản (có thể là HTML/Markdown)&lt;div&gt;&lt;br/&gt;&lt;/div&gt;" style="text;strokeColor=none;fillColor=none;align=left;verticalAlign=top;spacingLeft=4;spacingRight=4;overflow=hidden;rotatable=0;points=[[0,0.5],[1,0.5]];portConstraint=eastwest;whiteSpace=wrap;html=1;shadow=1;" vertex="1" parent="vWdL1QEMe_n-aXKPp4n5-55">
          <mxGeometry y="26" width="310" height="26" as="geometry" />
        </mxCell>
        <mxCell id="vWdL1QEMe_n-aXKPp4n5-57" value="" style="line;strokeWidth=1;fillColor=none;align=left;verticalAlign=middle;spacingTop=-1;spacingLeft=3;spacingRight=3;rotatable=0;labelPosition=right;points=[];portConstraint=eastwest;strokeColor=inherit;shadow=1;" vertex="1" parent="vWdL1QEMe_n-aXKPp4n5-55">
          <mxGeometry y="52" width="310" height="8" as="geometry" />
        </mxCell>
        <mxCell id="vWdL1QEMe_n-aXKPp4n5-58" value="&lt;p&gt;+ getContent(): String&lt;/p&gt;&lt;p&gt;&lt;br&gt;&lt;/p&gt;&lt;p&gt;// Override:&lt;/p&gt;&lt;p&gt;+ displayContent(): void   // Hiển thị nội dung [content]&lt;/p&gt;&lt;p&gt;+ toString(): String&lt;/p&gt;" style="text;strokeColor=none;fillColor=none;align=left;verticalAlign=top;spacingLeft=4;spacingRight=4;overflow=hidden;rotatable=0;points=[[0,0.5],[1,0.5]];portConstraint=eastwest;whiteSpace=wrap;html=1;shadow=1;" vertex="1" parent="vWdL1QEMe_n-aXKPp4n5-55">
          <mxGeometry y="60" width="310" height="150" as="geometry" />
        </mxCell>
        <mxCell id="vWdL1QEMe_n-aXKPp4n5-59" value="" style="endArrow=block;endSize=16;endFill=0;html=1;rounded=0;exitX=1;exitY=0.5;exitDx=0;exitDy=0;edgeStyle=orthogonalEdgeStyle;shadow=1;" edge="1" parent="1" source="vWdL1QEMe_n-aXKPp4n5-43">
          <mxGeometry width="160" relative="1" as="geometry">
            <mxPoint x="-1240" y="-1700" as="sourcePoint" />
            <mxPoint x="-960" y="-1882" as="targetPoint" />
            <Array as="points">
              <mxPoint x="-1260" y="-2442" />
              <mxPoint x="-1260" y="-1882" />
            </Array>
          </mxGeometry>
        </mxCell>
        <mxCell id="vWdL1QEMe_n-aXKPp4n5-64" value="Extends" style="endArrow=block;endSize=16;endFill=0;html=1;rounded=0;edgeStyle=orthogonalEdgeStyle;exitX=1;exitY=0.5;exitDx=0;exitDy=0;shadow=1;" edge="1" parent="1" source="vWdL1QEMe_n-aXKPp4n5-52">
          <mxGeometry width="160" relative="1" as="geometry">
            <mxPoint x="-1130" y="-1910" as="sourcePoint" />
            <mxPoint x="-540" y="-2180" as="targetPoint" />
            <Array as="points">
              <mxPoint x="-1130" y="-2951" />
              <mxPoint x="-1130" y="-2180" />
              <mxPoint x="-690" y="-2180" />
            </Array>
          </mxGeometry>
        </mxCell>
        <mxCell id="vWdL1QEMe_n-aXKPp4n5-67" value="Extends" style="endArrow=block;endSize=16;endFill=0;html=1;rounded=0;edgeStyle=orthogonalEdgeStyle;exitX=1;exitY=0.5;exitDx=0;exitDy=0;shadow=1;" edge="1" parent="1" source="vWdL1QEMe_n-aXKPp4n5-39">
          <mxGeometry width="160" relative="1" as="geometry">
            <mxPoint x="-1360" y="-1790" as="sourcePoint" />
            <mxPoint x="-800" y="-1800" as="targetPoint" />
            <Array as="points">
              <mxPoint x="-1660" y="-1800" />
              <mxPoint x="-800" y="-1800" />
            </Array>
          </mxGeometry>
        </mxCell>
      </root>
    </mxGraphModel>
  </diagram>
</mxfile>
